<svg width="96" height="96" xmlns="http://www.w3.org/2000/svg" xmlns:xlink="http://www.w3.org/1999/xlink" xml:space="preserve" overflow="hidden"><g transform="translate(-685 -304)"><path d="M761.286 329C762.724 323.951 766.262 319.762 771 317.5 766.256 315.246 762.715 311.054 761.286 306 759.847 311.05 756.307 315.238 751.568 317.5 756.307 319.762 759.847 323.95 761.286 329Z" fill="#1A237E"/><path d="M706.7 326C707.576 322.926 709.731 320.376 712.616 319 709.727 317.629 707.571 315.077 706.7 312 705.824 315.074 703.669 317.623 700.785 319 703.669 320.377 705.824 322.926 706.7 326Z" fill="#1A237E"/><path d="M767.7 377C766.886 379.854 764.886 382.222 762.207 383.5 764.886 384.778 766.886 387.146 767.7 390 768.515 387.144 770.518 384.777 773.2 383.5 770.515 382.228 768.51 379.858 767.7 377Z" fill="#1A237E"/><path d="M770.188 359.836 750.188 339.836C750.031 339.683 749.849 339.556 749.651 339.462 763.327 338.938 774.472 337.733 779 335.846L777.461 332.154C773.191 333.933 762.231 335.062 748.774 335.543L748.774 329C748.774 327.343 747.431 326 745.774 326 744.117 326 742.774 327.343 742.774 329L742.774 335.712C736.185 335.851 729.333 335.843 722.774 335.69L722.774 329C722.774 327.343 721.431 326 719.774 326 718.117 326 716.774 327.343 716.774 329L716.774 335.506C703.749 335.006 692.707 333.889 688.543 332.154L687 335.846C691.425 337.69 702.689 338.882 715.963 339.425 715.737 339.523 715.53 339.663 715.355 339.836L695.355 359.836C694.574 360.617 694.574 361.883 695.355 362.664L704.605 371.914C705.386 372.695 706.652 372.695 707.433 371.915 707.434 371.914 707.434 371.914 707.434 371.914L712.02 367.329 712.02 393C712.02 394.105 712.915 395 714.02 395L751.52 395C752.625 395 753.52 394.105 753.52 393L753.52 367.329 758.105 371.914C758.886 372.695 760.152 372.695 760.933 371.915 760.934 371.914 760.934 371.914 760.934 371.914L770.184 362.664C770.966 361.884 770.968 360.618 770.188 359.836ZM742.56 339.67C742.066 340.045 741.775 340.63 741.774 341.25 741.774 346.221 737.745 350.25 732.774 350.25 727.803 350.25 723.774 346.221 723.774 341.25 723.772 340.617 723.469 340.023 722.958 339.65 726.35 339.728 729.811 339.768 733.274 339.768 736.386 339.765 739.5 339.733 742.56 339.67Z" fill="#1A237E"/></g></svg>